<?xml version="1.0" encoding="utf-8"?>
<!-- Generator: Adobe Illustrator 21.1.0, SVG Export Plug-In . SVG Version: 6.00 Build 0)  -->
<svg version="1.0" id="Слой_1" xmlns="http://www.w3.org/2000/svg" xmlns:xlink="http://www.w3.org/1999/xlink" x="0px" y="0px"
	 viewBox="0 0 88 88" style="enable-background:new 0 0 88 88;" xml:space="preserve">
<style type="text/css">
	.st0{fill:#01A3D7;}
	.st1{fill:#FFFFFF;}
</style>
<g>
	<path class="st0" d="M76,88H12C5.4,88,0,82.6,0,76V12C0,5.4,5.4,0,12,0h64c6.6,0,12,5.4,12,12v64C88,82.6,82.6,88,76,88z"/>
	<path class="st1" d="M64.6,37.9l-3.1-2.5c-0.7-0.7-1-1-2-1h-5.2c-1,0-1.7,0.8-1.7,1.7v1.7c0,1.1,0.8,1.7,1.7,1.7h8.6
		c4.4,0,8.1,4.3,8.6,8.7c0.1,1.1-1.6,1.1-1.7,0c-0.4-3.6-3.3-7-6.9-7h-8.6c-1.9,0-3.4-1.6-3.4-3.5v-1.7c0-1.9,1.6-3.5,3.4-3.5h5.2
		c1.5,0,2.2,0.6,3.1,1.6l3.7,3.6C67.1,38.7,65.4,38.7,64.6,37.9z M25.3,43.3c3.3,0,5.9,2.7,5.9,6s-2.6,6-5.9,6c-3.3,0-5.9-2.7-5.9-6
		C19.4,46,22.1,43.3,25.3,43.3z M25.3,44.9c-2.4,0-4.3,2-4.3,4.4c0,2.4,1.9,4.4,4.3,4.4c2.4,0,4.3-2,4.3-4.4
		C29.6,46.9,27.7,44.9,25.3,44.9z M62.9,43.3c3.3,0,5.9,2.7,5.9,6s-2.6,6-5.9,6c-3.3,0-5.9-2.7-5.9-6C57,46,59.7,43.3,62.9,43.3z
		 M62.9,44.9c-2.4,0-4.3,2-4.3,4.4c0,2.4,1.9,4.4,4.3,4.4c2.4,0,4.3-2,4.3-4.4C67.2,46.9,65.3,44.9,62.9,44.9z M33.7,50.1h20.6
		c1.1,0,1.1,1.7,0,1.7H33.7C32.6,51.9,32.6,50.1,33.7,50.1z M33.7,37.9l4.9-3.6c1-1,2.3-1.6,3.7-1.6h3.4c1.8,0,3.4,1.6,3.4,3.5v1.7
		c0,1.9-1.5,3.5-3.4,3.5H25.1c-3.6,0-6.6,3.5-7,7.1c-0.1,1.1-1.7,0.9-1.6-0.2c0.5-4.4,4.2-8.6,8.6-8.7h20.6c0.9,0,1.7-0.6,1.7-1.7
		l0-1.8c0-1-0.8-1.7-1.7-1.7h-3.4c-1,0-1.9,0.3-2.6,1l-4.3,2.5C34.7,38.7,32.9,38.7,33.7,37.9z"/>
</g>
</svg>
