<?xml version="1.0" encoding="utf-8"?>
<!-- Generator: Adobe Illustrator 19.2.1, SVG Export Plug-In . SVG Version: 6.00 Build 0)  -->
<svg version="1.1" id="Слой_1" xmlns="http://www.w3.org/2000/svg" xmlns:xlink="http://www.w3.org/1999/xlink" x="0px" y="0px"
	 viewBox="0 0 120 120" style="enable-background:new 0 0 120 120;" xml:space="preserve">
<style type="text/css">
	.st0{fill:#222222;}
	.st1{fill:#08a5d8;}
	.st2{fill:#FFFFFF;}
</style>
<g>
	<path class="st0" d="M94,35.9c0,18.8-28.7,38.3-34,82.3c-5.3-43.9-34-63.5-34-82.3s15.2-34,34-34S94,17.1,94,35.9z"/>
	<circle class="st1" cx="60" cy="35.4" r="28.5"/>
	<path class="st2" d="M72.7,31.7l-1.9-1.5c-0.4-0.4-0.6-0.6-1.2-0.6h-3.2c-0.6,0-1.1,0.5-1.1,1.1v1.1c0,0.7,0.5,1.1,1.1,1.1h5.3
		c2.7,0,5,2.6,5.3,5.3c0.1,0.7-1,0.7-1.1,0c-0.2-2.2-2-4.2-4.2-4.2h-5.3c-1.2,0-2.1-1-2.1-2.1v-1.1c0-1.1,1-2.1,2.1-2.1h3.2
		c0.9,0,1.3,0.4,1.9,1l2.3,2.2C74.3,32.2,73.2,32.2,72.7,31.7z M48.5,34.9c2,0,3.6,1.6,3.6,3.7c0,2-1.6,3.7-3.6,3.7
		s-3.6-1.6-3.6-3.7C44.8,36.6,46.4,34.9,48.5,34.9z M48.5,35.9c-1.5,0-2.7,1.2-2.7,2.7s1.2,2.7,2.7,2.7s2.7-1.2,2.7-2.7
		C51.1,37.1,49.9,35.9,48.5,35.9z M71.7,34.9c2,0,3.6,1.6,3.6,3.7c0,2-1.6,3.7-3.6,3.7s-3.6-1.6-3.6-3.7
		C68.1,36.6,69.7,34.9,71.7,34.9z M71.7,35.9c-1.5,0-2.7,1.2-2.7,2.7s1.2,2.7,2.7,2.7s2.7-1.2,2.7-2.7S73.2,35.9,71.7,35.9z
		 M53.6,39.1h12.7c0.7,0,0.7,1.1,0,1.1H53.6C53,40.2,53,39.1,53.6,39.1z M53.6,31.7l3-2.2c0.6-0.6,1.4-1,2.3-1H61
		c1.1,0,2.1,1,2.1,2.1v1.1c0,1.1-0.9,2.1-2.1,2.1H48.3c-2.2,0-4.1,2.1-4.3,4.3c-0.1,0.7-1,0.6-1-0.1c0.3-2.7,2.6-5.3,5.3-5.3H61
		c0.6,0,1.1-0.4,1.1-1.1v-1.1c0-0.6-0.5-1-1.1-1h-2.1c-0.6,0-1.2,0.2-1.6,0.6l-2.6,1.5C54.2,32.2,53.2,32.2,53.6,31.7z"/>
</g>
</svg>
