<?xml version="1.0" encoding="utf-8"?>
<!-- Generator: Adobe Illustrator 21.1.0, SVG Export Plug-In . SVG Version: 6.00 Build 0)  -->
<svg version="1.0" id="Слой_1" xmlns="http://www.w3.org/2000/svg" xmlns:xlink="http://www.w3.org/1999/xlink" x="0px" y="0px"
	 viewBox="0 0 108 108" style="enable-background:new 0 0 108 108;" xml:space="preserve">
<style type="text/css">
	.st0{fill:#08A5D8;}
</style>
<g>
	<path class="st0" d="M56,44c-5.5,0.1-11.8,3.7-14.3,5.2c-0.2,0.1,6.8,0.1,13.3,0l1.5-5.3C56.3,44,56.1,44,56,44z"/>
	<circle class="st0" cx="72.9" cy="59.9" r="2"/>
	<circle class="st0" cx="32.9" cy="59.9" r="2"/>
	<path class="st0" d="M98,0H10C4.5,0,0,4.5,0,10v88c0,5.5,4.5,10,10,10h88c5.5,0,10-4.5,10-10V10C108,4.5,103.5,0,98,0z M32.9,64.7
		c-2.6,0-4.8-2.1-4.8-4.8c0-2.6,2.1-4.8,4.8-4.8c2.6,0,4.8,2.1,4.8,4.8C37.7,62.6,35.5,64.7,32.9,64.7z M72.9,64.7
		c-2.6,0-4.8-2.1-4.8-4.8c0-2.6,2.1-4.8,4.8-4.8c2.6,0,4.8,2.1,4.8,4.8C77.6,62.6,75.5,64.7,72.9,64.7z M85.8,58.6
		c0,0-2.4,1.6-7.2,1.8c-0.1,0-0.2,0-0.3,0c0-0.2,0-0.5,0-0.7c0-3.1-2.5-5.6-5.5-5.6c-3.1,0-5.5,2.3-5.5,5.4c0,0.3,0,0.6,0.1,0.6
		c0,0,0,0,0,0c-9.6,0-20.8,0.4-29,0.4c0.1-0.3,0.1-0.4,0.1-0.7c0-3.1-2.5-5.6-5.5-5.6c-3.1,0-5.5,2.3-5.5,5.3c0,0.4,0,0.6,0.1,0.6
		c-0.1,0-0.3,0-0.4,0c-4.2,0-5.5-0.5-5.5-0.5l0.7-5.8c3.8-3.9,18.2-4.5,18.2-4.5s8.4-5.9,15.4-6c11.3-0.2,22.4,4.4,23.8,4.4
		c1.4,0,5.2-0.5,5.2-0.5l-0.6,1.2l0.8,4.1l0.8,1l0.4,2.4L85.8,58.6z"/>
	<path class="st0" d="M55.5,49.2c5.4-0.1,10.4-0.1,10.4-0.1l2.7-3.8C64.8,44.6,60.9,44,57,44L55.5,49.2z"/>
</g>
</svg>
