<?xml version="1.0" encoding="utf-8"?>
<!-- Generator: Adobe Illustrator 21.1.0, SVG Export Plug-In . SVG Version: 6.00 Build 0)  -->
<svg version="1.0" id="Слой_1" xmlns="http://www.w3.org/2000/svg" xmlns:xlink="http://www.w3.org/1999/xlink" x="0px" y="0px"
	 viewBox="0 0 80 80" style="enable-background:new 0 0 80 80;" xml:space="preserve">
<style type="text/css">
	.st0{fill:#08A5D8;}
</style>
<g>
	<path class="st0" d="M29.2,50.8h21.6V29.2H29.2V50.8z M32.8,33.5c0-0.4,0.3-0.7,0.7-0.7h12.9c0.4,0,0.7,0.3,0.7,0.7v13
		c0,0.4-0.3,0.7-0.7,0.7h-13c-0.4,0-0.7-0.3-0.7-0.7V33.5z"/>
	<path class="st0" d="M70,0H10C4.5,0,0,4.5,0,10v60c0,5.5,4.5,10,10,10h60c5.5,0,10-4.5,10-10V10C80,4.5,75.5,0,70,0z M58,41.1
		c0,0.4-0.3,0.7-0.7,0.7h-2.9v3.6h2.9c0.4,0,0.7,0.3,0.7,0.7v2.2c0,0.4-0.3,0.7-0.7,0.7h-2.9v1.8c0,2-1.6,3.6-3.6,3.6H49v2.9
		c0,0.4-0.3,0.7-0.7,0.7h-2.2c-0.4,0-0.7-0.3-0.7-0.7v-2.9h-3.6v2.9c0,0.4-0.3,0.7-0.7,0.7h-2.2c-0.4,0-0.7-0.3-0.7-0.7v-2.9h-3.6
		v2.9c0,0.4-0.3,0.7-0.7,0.7h-2.2c-0.4,0-0.7-0.3-0.7-0.7v-2.9h-1.8c-2,0-3.6-1.6-3.6-3.6V49h-2.9c-0.4,0-0.7-0.3-0.7-0.7v-2.2
		c0-0.4,0.3-0.7,0.7-0.7h2.9v-3.6h-2.9c-0.4,0-0.7-0.3-0.7-0.7v-2.2c0-0.4,0.3-0.7,0.7-0.7h2.9v-3.6h-2.9c-0.4,0-0.7-0.3-0.7-0.7
		v-2.2c0-0.4,0.3-0.7,0.7-0.7h2.9v-1.8c0-2,1.6-3.6,3.6-3.6H31v-2.9c0-0.4,0.3-0.7,0.7-0.7h2.2c0.4,0,0.7,0.3,0.7,0.7v2.9h3.6v-2.9
		c0-0.4,0.3-0.7,0.7-0.7h2.2c0.4,0,0.7,0.3,0.7,0.7v2.9h3.6v-2.9c0-0.4,0.3-0.7,0.7-0.7h2.2c0.4,0,0.7,0.3,0.7,0.7v2.9h1.8
		c2,0,3.6,1.6,3.6,3.6V31h2.9c0.4,0,0.7,0.3,0.7,0.7v2.2c0,0.4-0.3,0.7-0.7,0.7v0h-2.9v3.6h2.9c0.4,0,0.7,0.3,0.7,0.7V41.1z"/>
</g>
</svg>
