<?xml version="1.0" encoding="utf-8"?>
<!-- Generator: Adobe Illustrator 19.2.1, SVG Export Plug-In . SVG Version: 6.00 Build 0)  -->
<svg version="1.1" id="Слой_1" xmlns="http://www.w3.org/2000/svg" xmlns:xlink="http://www.w3.org/1999/xlink" x="0px" y="0px"
	 viewBox="0 0 232 232" style="enable-background:new 0 0 232 232;" xml:space="preserve">
<style type="text/css">
	.st0{clip-path:url(#SVGID_2_);}
	.st1{fill:#FFFFFF;}
	.st2{enable-background:new    ;}
	.st3{fill:#08a5d8;}
</style>
<g>
	<g>
		<g>
			<g>
				<g>
					<g>
						<defs>
							<circle id="SVGID_1_" cx="116" cy="116" r="116"/>
						</defs>
						<clipPath id="SVGID_2_">
							<use xlink:href="#SVGID_1_"  style="overflow:visible;"/>
						</clipPath>
						<g class="st0">
							<circle class="st1" cx="116" cy="116" r="118.8"/>
						</g>
					</g>
				</g>
			</g>
		</g>
	</g>
	<g>
		<g class="st2">
			<path class="st3" d="M66.5,103.5l-1.7,5.1h-2.2l5.5-16.2h2.5l5.5,16.2h-2.2l-1.7-5.1H66.5z M71.8,101.8l-1.6-4.7
				c-0.4-1.1-0.6-2-0.8-3l0,0c-0.2,1-0.5,1.9-0.8,2.9l-1.6,4.7L71.8,101.8L71.8,101.8z"/>
			<path class="st3" d="M88.3,91.5v14.1c0,1,0,2.2,0.1,3h-1.9l-0.1-2l0,0c-0.6,1.3-2.1,2.3-4,2.3c-2.8,0-5-2.4-5-5.9
				c0-3.9,2.4-6.3,5.2-6.3c1.8,0,3,0.8,3.5,1.8l0,0v-7L88.3,91.5L88.3,91.5z M86.2,101.7c0-0.3,0-0.6-0.1-0.9
				c-0.3-1.3-1.5-2.5-3.1-2.5c-2.2,0-3.5,1.9-3.5,4.5c0,2.4,1.2,4.3,3.4,4.3c1.4,0,2.7-0.9,3.1-2.5c0.1-0.3,0.1-0.6,0.1-0.9v-2
				L86.2,101.7L86.2,101.7z"/>
			<path class="st3" d="M101.8,91.5v14.1c0,1,0,2.2,0.1,3H100l-0.1-2l0,0c-0.6,1.3-2.1,2.3-4,2.3c-2.8,0-5-2.4-5-5.9
				c0-3.9,2.4-6.3,5.2-6.3c1.8,0,3,0.8,3.5,1.8l0,0v-7L101.8,91.5L101.8,91.5z M99.7,101.7c0-0.3,0-0.6-0.1-0.9
				c-0.3-1.3-1.5-2.5-3.1-2.5c-2.2,0-3.5,1.9-3.5,4.5c0,2.4,1.2,4.3,3.4,4.3c1.4,0,2.7-0.9,3.1-2.5c0.1-0.3,0.1-0.6,0.1-0.9v-2
				L99.7,101.7L99.7,101.7z"/>
			<path class="st3" d="M110.5,100.7c0-1.5,0-2.7-0.1-3.8h1.9l0.1,2l0,0c0.9-1.4,2.2-2.3,4.1-2.3c2.8,0,4.9,2.4,4.9,5.9
				c0,4.2-2.6,6.3-5.3,6.3c-1.5,0-2.9-0.7-3.6-1.8l0,0v6.3h-2.1v-12.6L110.5,100.7L110.5,100.7z M112.5,103.8c0,0.3,0,0.6,0.1,0.9
				c0.4,1.5,1.7,2.5,3.2,2.5c2.2,0,3.5-1.8,3.5-4.5c0-2.3-1.2-4.3-3.5-4.3c-1.4,0-2.8,1-3.2,2.6c-0.1,0.3-0.1,0.6-0.1,0.9V103.8z"/>
			<path class="st3" d="M124.1,91.5h2.1v7.3l0,0c0.3-0.6,0.9-1.1,1.5-1.5s1.4-0.6,2.2-0.6c1.6,0,4.1,1,4.1,5v6.9h-2.1v-6.7
				c0-1.9-0.7-3.5-2.7-3.5c-1.4,0-2.5,1-2.8,2.1c-0.1,0.3-0.1,0.6-0.1,1v7h-2.1v-17H124.1z"/>
			<path class="st3" d="M148,102.6c0,4.3-3,6.2-5.8,6.2c-3.2,0-5.6-2.3-5.6-6c0-3.9,2.6-6.2,5.8-6.2C145.8,96.7,148,99.1,148,102.6z
				 M138.8,102.8c0,2.6,1.5,4.5,3.5,4.5s3.5-1.9,3.5-4.5c0-2-1-4.5-3.5-4.5C139.9,98.2,138.8,100.6,138.8,102.8z"/>
			<path class="st3" d="M153.3,93.6v3.3h3v1.6h-3v6.3c0,1.4,0.4,2.3,1.6,2.3c0.6,0,1-0.1,1.2-0.1l0.1,1.6c-0.4,0.2-1.1,0.3-1.9,0.3
				c-1,0-1.8-0.3-2.3-0.9c-0.6-0.6-0.8-1.7-0.8-3v-6.4h-1.8V97h1.8v-2.8L153.3,93.6z"/>
			<path class="st3" d="M169.1,102.6c0,4.3-3,6.2-5.8,6.2c-3.2,0-5.6-2.3-5.6-6c0-3.9,2.6-6.2,5.8-6.2
				C166.8,96.7,169.1,99.1,169.1,102.6z M159.8,102.8c0,2.6,1.5,4.5,3.5,4.5s3.5-1.9,3.5-4.5c0-2-1-4.5-3.5-4.5
				C160.9,98.2,159.8,100.6,159.8,102.8z"/>
			<path class="st3" d="M62,111.6v-1.2h108v1.2H62z"/>
		</g>
		<g class="st2">
			<path class="st3" d="M99.1,137.4l-0.2-1.5h-0.1c-0.6,0.9-1.9,1.7-3.6,1.7c-2.4,0-3.6-1.7-3.6-3.3c0-2.8,2.5-4.4,7-4.3v-0.2
				c0-1-0.3-2.7-2.6-2.7c-1.1,0-2.2,0.3-3,0.9l-0.5-1.4c1-0.6,2.4-1,3.8-1c3.6,0,4.4,2.4,4.4,4.8v4.4c0,1,0,2,0.2,2.8h-1.8
				L99.1,137.4L99.1,137.4z M98.8,131.5c-2.3,0-4.9,0.4-4.9,2.6c0,1.4,0.9,2,2,2c1.5,0,2.5-1,2.8-1.9c0.1-0.2,0.1-0.5,0.1-0.7V131.5
				L98.8,131.5z"/>
			<path class="st3" d="M104,135.3c0.6,0.4,1.7,0.8,2.8,0.8c1.5,0,2.3-0.8,2.3-1.7c0-1-0.6-1.6-2.2-2.1c-2.1-0.7-3.1-1.9-3.1-3.3
				c0-1.9,1.5-3.4,4-3.4c1.2,0,2.2,0.3,2.9,0.7l-0.5,1.5c-0.5-0.3-1.3-0.7-2.4-0.7c-1.3,0-1.9,0.7-1.9,1.6c0,1,0.7,1.4,2.2,2
				c2,0.8,3.1,1.8,3.1,3.5c0,2-1.6,3.5-4.4,3.5c-1.3,0-2.5-0.3-3.3-0.8L104,135.3z"/>
			<path class="st3" d="M113.5,135.3c0.6,0.4,1.7,0.8,2.8,0.8c1.5,0,2.3-0.8,2.3-1.7c0-1-0.6-1.6-2.2-2.1c-2.1-0.7-3.1-1.9-3.1-3.3
				c0-1.9,1.5-3.4,4-3.4c1.2,0,2.2,0.3,2.9,0.7l-0.5,1.5c-0.5-0.3-1.3-0.7-2.4-0.7c-1.3,0-1.9,0.7-1.9,1.6c0,1,0.7,1.4,2.2,2
				c2,0.8,3.1,1.8,3.1,3.5c0,2-1.6,3.5-4.4,3.5c-1.3,0-2.5-0.3-3.3-0.8L113.5,135.3z"/>
			<path class="st3" d="M124.5,132c0,2.9,1.9,4,4,4c1.5,0,2.4-0.3,3.2-0.6l0.4,1.5c-0.7,0.3-2,0.7-3.9,0.7c-3.6,0-5.7-2.4-5.7-5.9
				s2.1-6.3,5.5-6.3c3.8,0,4.8,3.3,4.8,5.5c0,0.4,0,0.8-0.1,1L124.5,132L124.5,132z M130.7,130.5c0-1.3-0.6-3.4-2.9-3.4
				c-2.1,0-3.1,2-3.2,3.4H130.7z"/>
			<path class="st3" d="M137.9,122.4v3.3h3v1.6h-3v6.3c0,1.4,0.4,2.3,1.6,2.3c0.6,0,1-0.1,1.2-0.1l0.1,1.6c-0.4,0.2-1.1,0.3-1.9,0.3
				c-1,0-1.8-0.3-2.3-0.9c-0.6-0.6-0.8-1.7-0.8-3v-6.4H134v-1.6h1.8V123L137.9,122.4z"/>
			<path class="st3" d="M90.9,140.4v-1.2h50.7v1.2H90.9z"/>
		</g>
	</g>
</g>
</svg>
