<?xml version="1.0" encoding="utf-8"?>
<!-- Generator: Adobe Illustrator 19.2.1, SVG Export Plug-In . SVG Version: 6.00 Build 0)  -->
<svg version="1.1" id="Слой_1" xmlns="http://www.w3.org/2000/svg" xmlns:xlink="http://www.w3.org/1999/xlink" x="0px" y="0px"
	 viewBox="0 0 242 242" style="enable-background:new 0 0 242 242;" xml:space="preserve">
<style type="text/css">
	.st0{fill:#FFFFFF;}
	.st1{fill:#08a5d8;}
</style>
<g id="XMLID_2_">
	<circle id="XMLID_3_" class="st0" cx="121" cy="122" r="120"/>
	<g id="XMLID_1_">
		<g id="XMLID_286_">
			<path id="XMLID_318_" class="st1" d="M39.4,128.1l-1.7-5.1h-7.3l-1.7,5.1h-3.1l6.9-19h3.2l6.9,19H39.4z M34,112.2l-2.8,8.3h5.7
				L34,112.2L34,112.2z"/>
			<path id="XMLID_315_" class="st1" d="M49.4,128.2c-1.8,0-3.3-0.7-4.4-2s-1.7-3.1-1.7-5.3s0.6-4,1.7-5.3s2.6-2,4.3-2
				c1,0,1.9,0.2,2.7,0.7c0.8,0.4,1.4,1.1,1.8,1.9h0.1v-7.9h2.8v19.9H54v-2.4h-0.1c-0.4,0.8-1,1.5-1.8,1.9
				C51.3,128,50.4,128.2,49.4,128.2z M50.1,116.1c-1.2,0-2.1,0.4-2.8,1.3c-0.7,0.9-1.1,2.1-1.1,3.5c0,1.5,0.3,2.7,1,3.6
				c0.7,0.9,1.6,1.3,2.8,1.3s2.1-0.4,2.8-1.3c0.7-0.9,1.1-2.1,1.1-3.5s-0.4-2.6-1.1-3.5C52.1,116.6,51.2,116.1,50.1,116.1z"/>
			<path id="XMLID_312_" class="st1" d="M65.2,128.2c-1.8,0-3.3-0.7-4.4-2s-1.7-3.1-1.7-5.3s0.6-4,1.7-5.3s2.6-2,4.3-2
				c1,0,1.9,0.2,2.7,0.7c0.8,0.4,1.4,1.1,1.8,1.9h0.1v-7.9h2.8v19.9h-2.8v-2.4h-0.1c-0.4,0.8-1,1.5-1.8,1.9
				C67.1,128,66.2,128.2,65.2,128.2z M65.9,116.1c-1.2,0-2.1,0.4-2.8,1.3c-0.7,0.9-1.1,2.1-1.1,3.5c0,1.5,0.3,2.7,1,3.6
				c0.7,0.9,1.6,1.3,2.8,1.3s2.1-0.4,2.8-1.3c0.7-0.9,1.1-2.1,1.1-3.5s-0.4-2.6-1.1-3.5C67.9,116.6,67,116.1,65.9,116.1z"/>
			<path id="XMLID_309_" class="st1" d="M89.2,113.6c1.8,0,3.3,0.7,4.4,2s1.7,3.1,1.7,5.3s-0.5,4-1.6,5.3s-2.5,2-4.3,2
				c-1,0-1.9-0.2-2.7-0.7c-0.8-0.4-1.4-1-1.8-1.8h-0.1v7h-2.9v-19h2.8v2.4h0.1c0.4-0.8,1-1.4,1.8-1.8
				C87.3,113.8,88.2,113.6,89.2,113.6z M88.5,125.8c1.2,0,2.1-0.4,2.8-1.3c0.7-0.9,1.1-2.1,1.1-3.5s-0.4-2.7-1.1-3.5
				s-1.6-1.3-2.8-1.3c-1.1,0-2.1,0.4-2.8,1.3c-0.7,0.9-1.1,2.1-1.1,3.5c0,1.5,0.4,2.6,1.1,3.5C86.4,125.3,87.3,125.8,88.5,125.8z"/>
			<path id="XMLID_307_" class="st1" d="M97.7,128.1v-19.9h2.8v8h0.1c0.9-1.7,2.4-2.6,4.7-2.6c1.6,0,2.8,0.5,3.8,1.5
				s1.4,2.3,1.4,3.9v9.1h-2.8v-8.6c0-1.1-0.3-1.9-0.9-2.5s-1.4-0.9-2.5-0.9s-2,0.4-2.7,1.1s-1,1.6-1,2.8v8.2L97.7,128.1L97.7,128.1
				L97.7,128.1z"/>
			<path id="XMLID_304_" class="st1" d="M124.4,126.3c-1.2,1.3-2.9,2-4.9,2s-3.7-0.7-4.9-2s-1.8-3.1-1.8-5.4c0-2.2,0.6-4,1.8-5.4
				c1.2-1.3,2.9-2,4.9-2s3.7,0.7,4.9,2s1.8,3.1,1.8,5.4S125.6,125,124.4,126.3z M116.6,124.6c0.7,0.9,1.6,1.3,2.8,1.3
				c1.2,0,2.2-0.4,2.8-1.3c0.7-0.9,1-2.1,1-3.7c0-1.6-0.3-2.8-1-3.7s-1.6-1.3-2.8-1.3c-1.2,0-2.2,0.4-2.8,1.3c-0.6,0.9-1,2.1-1,3.7
				S115.9,123.7,116.6,124.6z"/>
			<path id="XMLID_302_" class="st1" d="M129.3,110.6h2.8v3.2h2.7v2.3h-2.7v8c0,0.6,0.1,1.1,0.4,1.4s0.7,0.4,1.3,0.4
				c0.3,0,0.7,0,1-0.1v2.3c-0.4,0.1-0.9,0.1-1.6,0.1c-1.4,0-2.5-0.3-3.1-0.9c-0.6-0.6-0.9-1.6-0.9-3V116h-2v-2.3h2L129.3,110.6
				L129.3,110.6z"/>
			<path id="XMLID_299_" class="st1" d="M148.1,126.3c-1.2,1.3-2.9,2-4.9,2s-3.7-0.7-4.9-2c-1.2-1.3-1.8-3.1-1.8-5.4
				c0-2.2,0.6-4,1.8-5.4c1.2-1.4,2.9-2,4.9-2c2.1,0,3.7,0.7,4.9,2c1.2,1.3,1.8,3.1,1.8,5.4S149.3,125,148.1,126.3z M140.3,124.6
				c0.7,0.9,1.6,1.3,2.8,1.3s2.2-0.4,2.8-1.3c0.7-0.9,1-2.1,1-3.7c0-1.6-0.3-2.8-1-3.7s-1.6-1.3-2.8-1.3s-2.2,0.4-2.8,1.3
				c-0.6,0.9-1,2.1-1,3.7S139.6,123.7,140.3,124.6z"/>
			<path id="XMLID_296_" class="st1" d="M162.6,128.2c-1.4,0-2.6-0.4-3.5-1.2s-1.3-1.8-1.3-3.1c0-1.2,0.5-2.2,1.4-2.9
				s2.3-1.1,4.1-1.2l3.9-0.2v-1.1c0-0.8-0.3-1.4-0.8-1.9c-0.5-0.4-1.3-0.7-2.2-0.7c-0.8,0-1.4,0.2-2,0.6c-0.5,0.4-0.9,0.9-1,1.5
				h-2.7c0-1.3,0.6-2.3,1.7-3.2s2.4-1.3,4-1.3c1.7,0,3.1,0.4,4.2,1.3c1,0.9,1.6,2,1.6,3.4v9.8h-2.7v-2.4h-0.1
				c-0.4,0.8-1,1.4-1.8,1.8C164.6,127.8,163.6,128.2,162.6,128.2z M163.4,126c1.1,0,2-0.3,2.7-0.9c0.7-0.6,1.1-1.4,1.1-2.3v-1.1
				l-3.5,0.2c-2,0.1-3,0.8-3,2.1c0,0.6,0.2,1.1,0.7,1.5C161.9,125.8,162.6,126,163.4,126z"/>
			<path id="XMLID_294_" class="st1" d="M172.6,117.8c0-1.3,0.5-2.3,1.5-3.1s2.4-1.2,4-1.2s2.9,0.4,3.9,1.2s1.6,1.8,1.6,3.1h-2.7
				c-0.1-0.6-0.3-1.1-0.9-1.5s-1.2-0.6-2-0.6s-1.5,0.2-2,0.5s-0.7,0.8-0.7,1.4c0,0.9,0.7,1.5,2.2,1.8l2.4,0.6
				c1.4,0.4,2.5,0.8,3.1,1.4c0.6,0.6,0.9,1.4,0.9,2.5c0,1.3-0.5,2.3-1.6,3.1s-2.5,1.2-4.2,1.2s-3-0.4-4.1-1.2s-1.6-1.8-1.7-3.1h2.8
				c0.1,0.7,0.4,1.2,1,1.6c0.5,0.4,1.3,0.5,2.2,0.5s1.6-0.2,2.1-0.5s0.8-0.8,0.8-1.4c0-0.5-0.2-0.8-0.5-1.1s-0.8-0.5-1.6-0.7
				l-2.6-0.6C173.9,121.1,172.6,119.8,172.6,117.8z"/>
			<path id="XMLID_292_" class="st1" d="M186,117.8c0-1.3,0.5-2.3,1.5-3.1s2.4-1.2,4-1.2s2.9,0.4,3.9,1.2s1.6,1.8,1.6,3.1h-2.7
				c-0.1-0.6-0.3-1.1-0.9-1.5c-0.6-0.4-1.2-0.6-2-0.6s-1.5,0.2-2,0.5s-0.7,0.8-0.7,1.4c0,0.9,0.7,1.5,2.2,1.8l2.4,0.6
				c1.4,0.4,2.5,0.8,3.1,1.4c0.6,0.6,0.9,1.4,0.9,2.5c0,1.3-0.5,2.3-1.6,3.1s-2.5,1.2-4.2,1.2s-3-0.4-4.1-1.2s-1.6-1.8-1.7-3.1h2.8
				c0.1,0.7,0.4,1.2,1,1.6c0.5,0.4,1.3,0.5,2.2,0.5s1.6-0.2,2.1-0.5s0.8-0.8,0.8-1.4c0-0.5-0.2-0.8-0.5-1.1s-0.8-0.5-1.6-0.7
				l-2.6-0.6C187.3,121.1,186,119.8,186,117.8z"/>
			<path id="XMLID_289_" class="st1" d="M209.2,123.8h2.7c-0.2,1.3-0.9,2.3-2,3.1s-2.5,1.2-4.1,1.2c-2.1,0-3.7-0.7-4.9-2
				s-1.8-3.1-1.8-5.3s0.6-4,1.8-5.4s2.8-2,4.8-2s3.5,0.6,4.7,1.9c1.2,1.3,1.7,3,1.7,5.2v1H202v0.2c0,1.2,0.4,2.2,1.1,3
				c0.7,0.8,1.7,1.1,2.8,1.1c0.8,0,1.6-0.2,2.2-0.6C208.7,124.8,209,124.5,209.2,123.8z M205.6,115.8c-1,0-1.9,0.3-2.6,1
				s-1.1,1.6-1.1,2.7h7.3c0-1.1-0.4-2-1-2.7C207.6,116.2,206.7,115.8,205.6,115.8z"/>
			<path id="XMLID_287_" class="st1" d="M215.2,110.6h2.8v3.2h2.7v2.3H218v8c0,0.6,0.1,1.1,0.4,1.4c0.3,0.3,0.7,0.4,1.3,0.4
				c0.3,0,0.7,0,1-0.1v2.3c-0.4,0.1-0.9,0.1-1.6,0.1c-1.4,0-2.5-0.3-3.1-0.9c-0.6-0.6-0.9-1.6-0.9-3V116h-2v-2.3h2L215.2,110.6
				L215.2,110.6z"/>
		</g>
	</g>
</g>
</svg>
